<svg width="34" height="34" viewBox="0 0 34 34" fill="none" xmlns="http://www.w3.org/2000/svg">
<path d="M8.66683 7.33317V2.33317C8.66683 1.89114 8.84243 1.46722 9.15499 1.15466C9.46755 0.842099 9.89147 0.666504 10.3335 0.666504H23.6668C24.1089 0.666504 24.5328 0.842099 24.8453 1.15466C25.1579 1.46722 25.3335 1.89114 25.3335 2.33317V7.33317H32.0002C32.4422 7.33317 32.8661 7.50877 33.1787 7.82133C33.4912 8.13389 33.6668 8.55781 33.6668 8.99984V32.3332C33.6668 32.7752 33.4912 33.1991 33.1787 33.5117C32.8661 33.8242 32.4422 33.9998 32.0002 33.9998H2.00016C1.55814 33.9998 1.13421 33.8242 0.821651 33.5117C0.509091 33.1991 0.333496 32.7752 0.333496 32.3332V8.99984C0.333496 8.55781 0.509091 8.13389 0.821651 7.82133C1.13421 7.50877 1.55814 7.33317 2.00016 7.33317H8.66683ZM30.3335 20.6665H3.66683V30.6665H30.3335V20.6665ZM30.3335 10.6665H3.66683V17.3332H8.66683V13.9998H12.0002V17.3332H22.0002V13.9998H25.3335V17.3332H30.3335V10.6665ZM12.0002 3.99984V7.33317H22.0002V3.99984H12.0002Z" fill="#D85B45"/>
</svg>
