<svg width="34" height="30" viewBox="0 0 34 30" fill="none" xmlns="http://www.w3.org/2000/svg">
<path d="M2.00016 0H32.0002C32.4422 0 32.8661 0.175595 33.1787 0.488155C33.4912 0.800716 33.6668 1.22464 33.6668 1.66667V28.3333C33.6668 28.7754 33.4912 29.1993 33.1787 29.5118C32.8661 29.8244 32.4422 30 32.0002 30H2.00016C1.55814 30 1.13421 29.8244 0.821651 29.5118C0.509091 29.1993 0.333496 28.7754 0.333496 28.3333V1.66667C0.333496 1.22464 0.509091 0.800716 0.821651 0.488155C1.13421 0.175595 1.55814 0 2.00016 0ZM3.66683 3.33333V26.6667H30.3335V3.33333H3.66683ZM8.66683 16.6667H12.0002V23.3333H8.66683V16.6667ZM15.3335 6.66667H18.6668V23.3333H15.3335V6.66667ZM22.0002 11.6667H25.3335V23.3333H22.0002V11.6667Z" fill="#D85B45"/>
</svg>
