<svg width="124" height="21" viewBox="0 0 124 21" fill="none" xmlns="http://www.w3.org/2000/svg">
<path d="M0.865057 1.09091H5.05682L10.6705 14.7926H10.892L16.5057 1.09091H20.6974V20H17.4105V7.00923H17.2351L12.0092 19.9446H9.55327L4.32742 6.98153H4.15199V20H0.865057V1.09091ZM26.3358 20H22.6796L29.3365 1.09091H33.5652L40.2314 20H36.5752L31.5247 4.96875H31.377L26.3358 20ZM26.4559 12.5859H36.4274V15.3374H26.4559V12.5859ZM42.202 20V1.09091H54.5003V3.96236H45.6274V9.09588H53.8632V11.9673H45.6274V17.1286H54.5742V20H42.202ZM67.7513 6.28906C67.6651 5.48272 67.3019 4.85488 66.6618 4.40554C66.0278 3.9562 65.203 3.73153 64.1873 3.73153C63.4733 3.73153 62.8609 3.83925 62.35 4.05469C61.8391 4.27012 61.4482 4.5625 61.1774 4.93182C60.9066 5.30114 60.7681 5.72277 60.7619 6.19673C60.7619 6.59067 60.8512 6.93229 61.0297 7.22159C61.2143 7.51089 61.4636 7.7571 61.7775 7.96023C62.0915 8.1572 62.4392 8.32339 62.8209 8.45881C63.2025 8.59422 63.5872 8.7081 63.975 8.80043L65.7477 9.24361C66.4617 9.4098 67.148 9.63447 67.8067 9.91761C68.4714 10.2008 69.0654 10.5578 69.5886 10.9886C70.118 11.4195 70.5365 11.9396 70.8443 12.549C71.1521 13.1584 71.3059 13.8724 71.3059 14.6911C71.3059 15.799 71.0228 16.7746 70.4565 17.6179C69.8902 18.455 69.0716 19.1106 68.0005 19.5845C66.9357 20.0523 65.6461 20.2862 64.1319 20.2862C62.6608 20.2862 61.3836 20.0585 60.3003 19.603C59.2231 19.1475 58.3798 18.4827 57.7704 17.6087C57.1672 16.7346 56.841 15.6697 56.7917 14.4141H60.1618C60.211 15.0727 60.4141 15.6205 60.7711 16.0575C61.1281 16.4946 61.5929 16.8208 62.1653 17.0362C62.7439 17.2517 63.3902 17.3594 64.1042 17.3594C64.849 17.3594 65.5015 17.2486 66.0616 17.027C66.6279 16.7992 67.0711 16.4853 67.3912 16.0852C67.7112 15.679 67.8744 15.205 67.8805 14.6634C67.8744 14.1709 67.7297 13.7647 67.4466 13.4446C67.1634 13.1184 66.7664 12.8475 66.2555 12.6321C65.7508 12.4105 65.1599 12.2135 64.4828 12.0412L62.3315 11.4872C60.7742 11.0871 59.5432 10.4808 58.6383 9.66832C57.7397 8.84967 57.2903 7.76326 57.2903 6.40909C57.2903 5.29498 57.5919 4.31936 58.1951 3.48224C58.8045 2.64512 59.6324 1.99574 60.6788 1.53409C61.7252 1.06629 62.9101 0.832386 64.2335 0.832386C65.5754 0.832386 66.751 1.06629 67.7605 1.53409C68.7761 1.99574 69.5732 2.63897 70.1518 3.46378C70.7304 4.28243 71.029 5.22419 71.0474 6.28906H67.7513ZM73.0088 3.96236V1.09091H88.0954V3.96236H82.251V20H78.8532V3.96236H73.0088ZM90.4838 20V1.09091H97.5747C99.0274 1.09091 100.246 1.34328 101.231 1.84801C102.222 2.35275 102.97 3.06061 103.475 3.97159C103.985 4.87642 104.241 5.93205 104.241 7.13849C104.241 8.35109 103.982 9.40365 103.465 10.2962C102.954 11.1825 102.2 11.8688 101.203 12.3551C100.206 12.8352 98.9812 13.0753 97.5286 13.0753H92.4781V10.2315H97.0669C97.9163 10.2315 98.6119 10.1146 99.1536 9.88068C99.6952 9.64062 100.095 9.29285 100.354 8.83736C100.619 8.37571 100.751 7.80942 100.751 7.13849C100.751 6.46757 100.619 5.89512 100.354 5.42116C100.089 4.94105 99.686 4.57789 99.1443 4.33168C98.6027 4.07931 97.904 3.95312 97.0484 3.95312H93.9092V20H90.4838ZM100.252 11.4318L104.933 20H101.111L96.5129 11.4318H100.252ZM123.77 10.5455C123.77 12.5829 123.389 14.3279 122.625 15.7805C121.868 17.227 120.834 18.335 119.523 19.1044C118.218 19.8738 116.738 20.2585 115.082 20.2585C113.426 20.2585 111.943 19.8738 110.632 19.1044C109.327 18.3288 108.293 17.2178 107.53 15.7713C106.772 14.3187 106.394 12.5767 106.394 10.5455C106.394 8.50805 106.772 6.7661 107.53 5.3196C108.293 3.86695 109.327 2.75592 110.632 1.9865C111.943 1.21709 113.426 0.832386 115.082 0.832386C116.738 0.832386 118.218 1.21709 119.523 1.9865C120.834 2.75592 121.868 3.86695 122.625 5.3196C123.389 6.7661 123.77 8.50805 123.77 10.5455ZM120.326 10.5455C120.326 9.11127 120.102 7.90175 119.652 6.9169C119.209 5.9259 118.594 5.17803 117.806 4.6733C117.018 4.16241 116.11 3.90696 115.082 3.90696C114.054 3.90696 113.146 4.16241 112.358 4.6733C111.57 5.17803 110.952 5.9259 110.503 6.9169C110.059 7.90175 109.838 9.11127 109.838 10.5455C109.838 11.9796 110.059 13.1922 110.503 14.1832C110.952 15.1681 111.57 15.916 112.358 16.4268C113.146 16.9316 114.054 17.1839 115.082 17.1839C116.11 17.1839 117.018 16.9316 117.806 16.4268C118.594 15.916 119.209 15.1681 119.652 14.1832C120.102 13.1922 120.326 11.9796 120.326 10.5455Z" fill="black"/>
</svg>
