<svg width="28" height="36" viewBox="0 0 28 36" fill="none" xmlns="http://www.w3.org/2000/svg">
<path d="M13.9998 8.66654C17.5361 8.66654 20.9274 10.0713 23.4279 12.5718C25.9284 15.0723 27.3332 18.4637 27.3332 21.9999C27.3332 25.5361 25.9284 28.9275 23.4279 31.428C20.9274 33.9285 17.5361 35.3332 13.9998 35.3332C10.4636 35.3332 7.07223 33.9285 4.57175 31.428C2.07126 28.9275 0.666504 25.5361 0.666504 21.9999C0.666504 18.4637 2.07126 15.0723 4.57175 12.5718C7.07223 10.0713 10.4636 8.66654 13.9998 8.66654ZM13.9998 11.9999C11.3477 11.9999 8.80413 13.0534 6.92877 14.9288C5.05341 16.8042 3.99984 19.3477 3.99984 21.9999C3.99984 24.652 5.05341 27.1956 6.92877 29.0709C8.80413 30.9463 11.3477 31.9999 13.9998 31.9999C16.652 31.9999 19.1955 30.9463 21.0709 29.0709C22.9463 27.1956 23.9998 24.652 23.9998 21.9999C23.9998 19.3477 22.9463 16.8042 21.0709 14.9288C19.1955 13.0534 16.652 11.9999 13.9998 11.9999ZM13.9998 14.4999L16.2048 18.9665L21.1332 19.6832L17.5665 23.1582L18.4082 28.0682L13.9998 25.7499L9.5915 28.0665L10.4332 23.1582L6.8665 19.6815L11.7948 18.9649L13.9998 14.4999ZM23.9998 0.33321V5.33321L21.7282 7.22988C19.8431 6.24085 17.7849 5.6246 15.6665 5.41488V0.33321H23.9998ZM12.3332 0.331543V5.41488C10.2154 5.62429 8.15788 6.23996 6.27317 7.22821L3.99984 5.33321V0.33321L12.3332 0.331543Z" fill="#D85B45"/>
</svg>
