<svg width="34" height="34" viewBox="0 0 34 34" fill="none" xmlns="http://www.w3.org/2000/svg">
<path d="M15.3335 0.416706V3.77004C8.75683 4.59004 3.66683 10.2 3.66683 17C3.66683 24.3634 9.63683 30.3334 17.0002 30.3334C20.0818 30.3334 22.9168 29.2884 25.1768 27.5334L27.5485 29.905C24.6752 32.255 21.0002 33.6667 17.0002 33.6667C7.79516 33.6667 0.333496 26.205 0.333496 17C0.333496 8.35837 6.91183 1.25171 15.3335 0.416706ZM33.5835 18.6667C33.2502 22.0184 31.9268 25.0784 29.9052 27.5467L27.5335 25.1767C28.9668 23.3317 29.9268 21.1017 30.2302 18.6667H33.5852H33.5835ZM18.6702 0.416706C26.5435 1.19837 32.8035 7.46004 33.5868 15.3334H30.2318C29.4802 9.30337 24.7002 4.52337 18.6702 3.77004V0.415039V0.416706Z" fill="#D85B45"/>
</svg>
