<svg width="165" height="125" viewBox="0 0 165 125" fill="none" xmlns="http://www.w3.org/2000/svg">
<path d="M40.2101 125C32.8151 125 26.4986 123.606 21.2605 120.818C16.3305 118.03 12.3249 114.157 9.2437 109.201C6.16247 104.554 3.85154 98.9777 2.31093 92.4721C0.770309 85.6568 0 79.3061 0 73.4201C0 57.9306 3.85154 43.8352 11.5546 31.1338C19.5658 18.1227 31.7367 7.74473 48.0672 0L52.2269 8.36432C43.2913 12.0818 35.4342 17.9678 28.6555 26.0223C22.1849 34.0768 18.3333 42.2862 17.1008 50.6505C16.1765 56.5366 16.3305 61.9579 17.563 66.9145C23.7255 60.7187 31.5826 57.6208 41.1345 57.6208C50.9944 57.6208 59.1597 60.5638 65.6302 66.4498C72.1008 72.3358 75.3361 80.7001 75.3361 91.5428C75.3361 101.456 71.9468 109.511 65.1681 115.706C58.3894 121.902 50.07 125 40.2101 125ZM129.874 125C122.479 125 116.162 123.606 110.924 120.818C105.994 118.03 101.989 114.157 98.9076 109.201C95.8263 104.554 93.5154 98.9777 91.9748 92.4721C90.4342 85.6568 89.6639 79.3061 89.6639 73.4201C89.6639 57.9306 93.5154 43.8352 101.218 31.1338C109.23 18.1227 121.401 7.74473 137.731 0L141.891 8.36432C132.955 12.0818 125.098 17.9678 118.319 26.0223C111.849 34.0768 107.997 42.2862 106.765 50.6505C105.84 56.5366 105.994 61.9579 107.227 66.9145C113.389 60.7187 121.246 57.6208 130.798 57.6208C140.658 57.6208 148.824 60.5638 155.294 66.4498C161.765 72.3358 165 80.7001 165 91.5428C165 101.456 161.611 109.511 154.832 115.706C148.053 121.902 139.734 125 129.874 125Z" fill="black"/>
</svg>
