<svg width="132" height="132" viewBox="0 0 132 132" fill="none" xmlns="http://www.w3.org/2000/svg">
<circle cx="66" cy="66" r="66" fill="#D85B45"/>
<path d="M113.588 67.2639L114.689 67.3532L114.219 73.1368L113.119 73.0474L113.301 70.8069L107.152 70.3078L107.258 69.0053L113.406 69.5044L113.588 67.2639Z" fill="#E5E5E1"/>
<path d="M108.587 81.1291C107.83 80.927 107.22 80.6121 106.755 80.1844C106.293 79.7595 105.984 79.2654 105.828 78.7018C105.671 78.1406 105.675 77.5523 105.84 76.937C106.004 76.3218 106.294 75.8087 106.71 75.3978C107.128 74.9898 107.643 74.7157 108.256 74.5756C108.871 74.4383 109.556 74.4704 110.311 74.6719C111.068 74.874 111.678 75.1875 112.14 75.6123C112.604 76.04 112.915 76.5345 113.071 77.0957C113.227 77.6592 113.223 78.2486 113.058 78.8639C112.894 79.4792 112.604 79.9912 112.189 80.3998C111.773 80.8107 111.258 81.0847 110.643 81.222C110.03 81.3621 109.344 81.3312 108.587 81.1291ZM108.929 79.8493C109.462 79.9916 109.934 80.0281 110.344 79.9588C110.756 79.8924 111.095 79.7378 111.361 79.4951C111.629 79.253 111.814 78.941 111.916 78.559C112.018 78.177 112.013 77.8143 111.901 77.4708C111.792 77.128 111.575 76.8239 111.252 76.5586C110.93 76.2963 110.502 76.0939 109.969 75.9517C109.436 75.8094 108.964 75.7715 108.551 75.8379C108.141 75.9072 107.802 76.0629 107.534 76.305C107.268 76.5477 107.084 76.86 106.982 77.242C106.88 77.624 106.884 77.9864 106.993 78.3293C107.105 78.6727 107.322 78.9756 107.644 79.238C107.968 79.5033 108.396 79.7071 108.929 79.8493Z" fill="#E5E5E1"/>
<path d="M104.461 81.6216L111.026 84.7511L109.853 87.213C109.612 87.7173 109.317 88.0956 108.966 88.3479C108.614 88.6023 108.231 88.7387 107.819 88.757C107.407 88.7785 106.993 88.69 106.576 88.4913C106.155 88.2906 105.823 88.0237 105.581 87.6904C105.339 87.3572 105.206 86.9726 105.183 86.5368C105.162 86.102 105.272 85.6313 105.514 85.1248L106.292 83.4932L107.269 83.9593L106.568 85.4306C106.427 85.7255 106.363 85.9915 106.376 86.2284C106.389 86.4654 106.464 86.6715 106.601 86.8469C106.737 87.0243 106.921 87.1686 107.154 87.2796C107.387 87.3907 107.614 87.4425 107.835 87.4352C108.055 87.43 108.26 87.3557 108.449 87.2124C108.639 87.0722 108.805 86.8536 108.946 86.5565L109.466 85.4667L103.895 82.8108L104.461 81.6216Z" fill="#E5E5E1"/>
<path d="M100.501 97.0857C100.686 97.163 100.871 97.2101 101.054 97.227C101.237 97.2473 101.417 97.2368 101.593 97.1955C101.768 97.1561 101.935 97.0828 102.095 96.9758C102.257 96.8703 102.407 96.7338 102.547 96.5665C102.797 96.2663 102.944 95.9361 102.988 95.5756C103.033 95.2152 102.965 94.8457 102.784 94.4672C102.604 94.092 102.304 93.7301 101.886 93.3816C101.464 93.0301 101.051 92.7988 100.648 92.6876C100.244 92.5765 99.8674 92.5755 99.5177 92.6847C99.1697 92.7954 98.8654 93.0072 98.6048 93.3201C98.3684 93.6038 98.2185 93.8949 98.1549 94.1932C98.0898 94.4933 98.1103 94.783 98.2165 95.0625C98.3244 95.3435 98.5139 95.5968 98.785 95.8226L98.5586 96.0222L99.8223 94.5051L100.614 95.1642L98.7249 97.4317L98.0536 96.8726C97.5752 96.4741 97.2462 96.0275 97.0667 95.5329C96.8871 95.0382 96.8513 94.5339 96.959 94.0197C97.0687 93.5071 97.3159 93.0198 97.7007 92.5578C98.1295 92.043 98.6216 91.6872 99.1768 91.4903C99.7324 91.2968 100.315 91.2689 100.924 91.4067C101.534 91.5478 102.133 91.8639 102.723 92.3548C103.174 92.7305 103.524 93.1298 103.772 93.5526C104.019 93.9772 104.17 94.4081 104.225 94.8452C104.282 95.2838 104.246 95.7124 104.116 96.131C103.988 96.5512 103.771 96.944 103.467 97.3097C103.209 97.6189 102.923 97.8694 102.61 98.061C102.298 98.2542 101.973 98.3855 101.635 98.455C101.295 98.5263 100.955 98.5345 100.616 98.4797C100.276 98.425 99.9516 98.3041 99.6421 98.1171L100.501 97.0857Z" fill="#E5E5E1"/>
<path d="M94.569 96.1028L99.3245 101.605L98.3277 102.467L94.2944 97.7999L91.8709 99.8943L91.1487 99.0587L94.569 96.1028Z" fill="#E5E5E1"/>
<path d="M86.468 106.32C86.062 105.65 85.8399 105 85.8015 104.37C85.7623 103.743 85.8817 103.172 86.1597 102.658C86.4357 102.145 86.846 101.723 87.3907 101.393C87.9354 101.063 88.5001 100.894 89.0847 100.886C89.6685 100.881 90.2301 101.041 90.7694 101.365C91.308 101.692 91.7796 102.189 92.1844 102.857C92.5903 103.528 92.8129 104.176 92.8521 104.803C92.8905 105.433 92.7717 106.004 92.4957 106.517C92.2177 107.032 91.8064 107.454 91.2617 107.784C90.717 108.114 90.1533 108.282 89.5707 108.289C88.9861 108.297 88.4245 108.138 87.886 107.811C87.3467 107.487 86.874 106.99 86.468 106.32ZM87.601 105.634C87.8868 106.105 88.2017 106.459 88.5457 106.693C88.889 106.931 89.2405 107.054 89.6003 107.063C89.9613 107.074 90.3109 106.977 90.649 106.773C90.9872 106.568 91.235 106.303 91.3923 105.978C91.551 105.655 91.6054 105.285 91.5558 104.87C91.5053 104.457 91.3372 104.015 91.0514 103.544C90.7656 103.072 90.4511 102.717 90.1078 102.479C89.7638 102.245 89.4112 102.122 89.0503 102.111C88.6905 102.102 88.3415 102.2 88.0034 102.405C87.6652 102.61 87.4168 102.874 87.2582 103.197C87.1008 103.522 87.0474 103.89 87.0978 104.303C87.1475 104.718 87.3152 105.162 87.601 105.634Z" fill="#E5E5E1"/>
<path d="M83.2249 103.778L85.8308 110.568L83.2316 111.566C82.7409 111.754 82.3035 111.833 81.9192 111.803C81.5335 111.776 81.2091 111.661 80.946 111.458C80.6806 111.255 80.4835 110.986 80.3546 110.65C80.2485 110.374 80.2108 110.117 80.2414 109.88C80.2728 109.644 80.3547 109.432 80.4871 109.241C80.6195 109.051 80.786 108.887 80.9867 108.749L80.9612 108.683C80.7152 108.762 80.4558 108.777 80.1831 108.727C79.9089 108.68 79.6545 108.562 79.4197 108.373C79.1849 108.184 79.0014 107.917 78.8691 107.572C78.7342 107.221 78.698 106.872 78.7604 106.526C78.8237 106.182 78.9957 105.864 79.2764 105.571C79.557 105.279 79.9571 105.032 80.4765 104.833L83.2249 103.778ZM82.3893 105.278L81.0665 105.786C80.6201 105.957 80.3311 106.166 80.1997 106.411C80.067 106.66 80.0524 106.919 80.1558 107.189C80.233 107.39 80.3523 107.552 80.5137 107.675C80.6759 107.801 80.8666 107.875 81.0857 107.897C81.3056 107.922 81.5427 107.885 81.7968 107.788L83.1528 107.267L82.3893 105.278ZM83.4925 108.152L82.2758 108.619C82.0636 108.701 81.8873 108.813 81.7468 108.956C81.6072 109.1 81.5163 109.263 81.4742 109.444C81.4307 109.628 81.4471 109.82 81.5235 110.019C81.6244 110.282 81.8004 110.463 82.0514 110.562C82.3001 110.662 82.6058 110.642 82.9682 110.503L84.2115 110.026L83.4925 108.152Z" fill="#E5E5E1"/>
<path d="M75.8364 106.267L77.2157 105.993L76.1216 113.625L74.5263 113.942L70.5944 107.308L71.9737 107.034L75.0055 112.326L75.0612 112.315L75.8364 106.267ZM76.3468 109.073L72.5851 109.82L72.3789 108.782L76.1406 108.035L76.3468 109.073Z" fill="#E5E5E1"/>
<path d="M70.0283 107.232L70.365 114.497L69.0489 114.558L68.7634 108.396L65.5637 108.544L65.5126 107.441L70.0283 107.232Z" fill="#E5E5E1"/>
<path d="M61.2951 107.129L60.042 114.293L55.3826 113.478L55.5729 112.39L58.9345 112.978L59.2747 111.033L56.1545 110.487L56.3448 109.399L59.465 109.945L59.8071 107.99L56.4175 107.397L56.6078 106.309L61.2951 107.129Z" fill="#E5E5E1"/>
<path d="M51.7065 112.432L51.0624 109.392L51.0087 109.373L48.6185 111.365L47.1987 110.875L50.5041 108.169L49.5401 103.989L50.9834 104.488L51.65 107.517L51.7037 107.535L54.0982 105.564L55.5348 106.06L52.1757 108.747L53.133 112.925L51.7065 112.432Z" fill="#E5E5E1"/>
<path d="M48.7025 103.526L45.2132 109.907L42.8203 108.598C42.3301 108.33 41.9688 108.014 41.7364 107.65C41.5019 107.284 41.387 106.895 41.3916 106.482C41.393 106.069 41.5044 105.661 41.7259 105.256C41.9496 104.847 42.2346 104.53 42.5808 104.307C42.927 104.083 43.3183 103.972 43.7548 103.973C44.1901 103.977 44.6539 104.113 45.1462 104.382L46.7321 105.249L46.2124 106.2L44.7823 105.418C44.4957 105.261 44.2337 105.182 43.9964 105.182C43.7591 105.182 43.5491 105.245 43.3664 105.372C43.1817 105.497 43.0274 105.673 42.9036 105.9C42.7798 106.126 42.7154 106.35 42.7105 106.571C42.7035 106.791 42.7662 107 42.8989 107.196C43.0283 107.394 43.2373 107.572 43.5261 107.73L44.5854 108.309L47.5465 102.894L48.7025 103.526Z" fill="#E5E5E1"/>
<path d="M42.7778 100.089L38.3089 105.827L34.5771 102.92L35.2558 102.049L37.9481 104.146L39.1614 102.588L36.6623 100.642L37.341 99.7704L39.84 101.717L41.0598 100.151L38.3451 98.0363L39.0237 97.165L42.7778 100.089Z" fill="#E5E5E1"/>
<path d="M37.9165 96.1499L32.6085 101.122L30.7441 99.1311C30.3622 98.7233 30.1126 98.3148 29.9953 97.9057C29.8765 97.4948 29.8785 97.0987 30.0016 96.7175C30.1212 96.3362 30.3504 95.9869 30.689 95.6697C31.0294 95.3509 31.3929 95.1467 31.7794 95.0572C32.1625 94.9676 32.5534 94.9988 32.9521 95.1508C33.349 95.3045 33.7385 95.5853 34.1204 95.993L35.4483 97.4107L34.65 98.1584L33.4435 96.8703C33.2202 96.6319 33.0045 96.4674 32.7964 96.3768C32.5866 96.2879 32.3838 96.267 32.188 96.3142C31.9888 96.3613 31.795 96.473 31.6067 96.6494C31.4183 96.8258 31.2924 97.0135 31.229 97.2124C31.1638 97.4129 31.1679 97.6216 31.2412 97.8384C31.3127 98.0568 31.461 98.2861 31.686 98.5263L32.5114 99.4075L37.0159 95.1883L37.9165 96.1499ZM32.9429 95.6606L34.1173 92.0937L35.1224 93.1667L33.9261 96.7102L32.9429 95.6606Z" fill="#E5E5E1"/>
<path d="M28.3696 94.7009L27.4488 95.3108L24.2447 90.4731L25.1655 89.8632L26.4067 91.7373L31.5493 88.3312L32.271 89.4207L27.1283 92.8268L28.3696 94.7009Z" fill="#E5E5E1"/>
<path d="M22.1046 74.8618L23.1135 74.5427L26.1286 84.0774L25.1196 84.3964L22.1046 74.8618Z" fill="#E5E5E1"/>
<path d="M19.0597 70.4273L17.9557 70.4571L17.799 64.6567L18.903 64.6269L18.9637 66.8739L25.1298 66.7073L25.1651 68.0136L18.999 68.1803L19.0597 70.4273Z" fill="#E5E5E1"/>
<path d="M22.5473 56.0002C23.3216 56.1204 23.9623 56.3684 24.4694 56.7442C24.9744 57.1173 25.3345 57.5757 25.5496 58.1194C25.765 58.6607 25.8239 59.2461 25.7262 59.8754C25.6285 60.5047 25.3947 61.0457 25.025 61.4986C24.6532 61.9488 24.1699 62.2763 23.5751 62.481C22.9784 62.6831 22.294 62.7242 21.522 62.6043C20.7476 62.4841 20.1079 62.2374 19.6028 61.8643C19.0958 61.4885 18.7345 61.03 18.5191 60.4886C18.304 59.9449 18.2453 59.3584 18.343 58.7291C18.4407 58.0998 18.6743 57.5599 19.0437 57.1093C19.4135 56.6564 19.8968 56.329 20.4936 56.127C21.0883 55.9222 21.7729 55.88 22.5473 56.0002ZM22.344 57.3091C21.799 57.2244 21.326 57.2385 20.9252 57.3511C20.5224 57.4611 20.2019 57.6509 19.9635 57.9206C19.7229 58.1899 19.5722 58.5199 19.5116 58.9105C19.4509 59.3012 19.4944 59.6613 19.6421 59.9909C19.7875 60.3202 20.0352 60.5994 20.3853 60.8286C20.7335 61.0552 21.1801 61.2108 21.7252 61.2954C22.2703 61.38 22.7442 61.3674 23.147 61.2574C23.5478 61.1447 23.8685 60.9537 24.1092 60.6844C24.3475 60.4148 24.497 60.0846 24.5577 59.6939C24.6183 59.3033 24.576 58.9433 24.4306 58.6141C24.2829 58.2845 24.035 58.0064 23.6869 57.7799C23.3367 57.5506 22.8891 57.3937 22.344 57.3091Z" fill="#E5E5E1"/>
<path d="M26.5774 55.1146L19.7123 52.7138L20.6127 50.1394C20.7971 49.612 21.0502 49.2039 21.3719 48.9151C21.6943 48.6241 22.0597 48.4471 22.4679 48.3843C22.8747 48.3183 23.296 48.3616 23.7317 48.514C24.172 48.6679 24.5306 48.8974 24.8077 49.2025C25.0847 49.5075 25.2582 49.8755 25.3283 50.3063C25.3961 50.7363 25.3374 51.2161 25.1522 51.7457L24.5555 53.4519L23.5331 53.0944L24.0712 51.5558C24.179 51.2474 24.2137 50.9761 24.1752 50.742C24.1367 50.5078 24.04 50.311 23.8852 50.1514C23.731 49.9897 23.5322 49.8662 23.2886 49.7811C23.045 49.6959 22.8137 49.6689 22.5946 49.7001C22.3763 49.7291 22.181 49.8251 22.0086 49.988C21.8348 50.1479 21.6936 50.3832 21.585 50.6938L21.1864 51.8335L27.0123 53.871L26.5774 55.1146Z" fill="#E5E5E1"/>
<path d="M28.8921 39.2432C28.6998 39.186 28.5117 39.1586 28.3278 39.1611C28.1433 39.1603 27.9657 39.1898 27.7949 39.2494C27.6255 39.3071 27.4669 39.3976 27.319 39.5209C27.1693 39.643 27.0339 39.7946 26.913 39.9757C26.6961 40.3006 26.5846 40.6446 26.5784 41.0077C26.5723 41.3708 26.679 41.731 26.8988 42.0883C27.1178 42.4424 27.4538 42.7706 27.9067 43.0729C28.3635 43.3779 28.7984 43.5643 29.2113 43.6322C29.6243 43.7001 29.9989 43.6613 30.3352 43.5157C30.6695 43.3689 30.9497 43.1261 31.1758 42.7875C31.3808 42.4803 31.4992 42.1751 31.5309 41.8717C31.564 41.5664 31.5129 41.2804 31.3779 41.0138C31.2408 40.7458 31.0256 40.5139 30.7322 40.318L30.9362 40.0955L29.8399 41.7377L28.9834 41.1658L30.622 38.7115L31.3485 39.1966C31.8664 39.5423 32.2407 39.9516 32.4715 40.4245C32.7023 40.8974 32.7913 41.3952 32.7384 41.9178C32.6836 42.4391 32.4892 42.9498 32.1553 43.45C31.7833 44.0072 31.3316 44.413 30.8003 44.6674C30.2683 44.9185 29.692 45.0078 29.0716 44.9351C28.4505 44.8592 27.821 44.6083 27.183 44.1824C26.6947 43.8564 26.3046 43.4963 26.0127 43.1022C25.7221 42.7061 25.5263 42.2936 25.4255 41.8648C25.3227 41.4346 25.3138 41.0045 25.3988 40.5745C25.4818 40.1432 25.6554 39.7296 25.9196 39.3339C26.1431 38.9991 26.4007 38.7199 26.6923 38.4962C26.982 38.2712 27.2914 38.1063 27.6204 38.0014C27.9508 37.8946 28.2877 37.8505 28.631 37.8691C28.9744 37.8877 29.3099 37.9736 29.6375 38.1268L28.8921 39.2432Z" fill="#E5E5E1"/>
<path d="M34.8192 39.6715L29.5112 34.6998L30.4119 33.7382L34.9138 37.955L37.1035 35.6172L37.9095 36.3721L34.8192 39.6715Z" fill="#E5E5E1"/>
<path d="M41.8443 28.5926C42.319 29.2161 42.6089 29.839 42.7138 30.4613C42.8192 31.0804 42.7609 31.6604 42.539 32.2013C42.3189 32.7408 41.9556 33.2035 41.4489 33.5893C40.9422 33.9751 40.3987 34.203 39.8182 34.273C39.2382 34.3398 38.6629 34.2407 38.0923 33.976C37.5221 33.7079 37.0004 33.263 36.5271 32.6415C36.0524 32.018 35.7623 31.3968 35.657 30.7777C35.552 30.1554 35.6096 29.5744 35.8296 29.0349C36.0515 28.494 36.4158 28.0306 36.9225 27.6448C37.4292 27.259 37.9718 27.0318 38.5504 26.9632C39.1309 26.8932 39.7062 26.9922 40.2763 27.2603C40.8469 27.5251 41.3696 27.9692 41.8443 28.5926ZM40.7905 29.3951C40.4563 28.9562 40.1057 28.6385 39.7388 28.4418C39.3722 28.2418 39.0096 28.1564 38.6509 28.1855C38.2908 28.2128 37.9535 28.3461 37.6389 28.5857C37.3244 28.8252 37.106 29.1149 36.984 29.4548C36.8605 29.7928 36.8455 30.1658 36.9389 30.5738C37.0327 30.9784 37.2468 31.4001 37.5809 31.839C37.9151 32.2779 38.2655 32.5973 38.632 32.7973C38.999 32.9939 39.3625 33.0787 39.7227 33.0514C40.0813 33.0223 40.418 32.888 40.7325 32.6484C41.0471 32.4089 41.2661 32.1201 41.3896 31.7821C41.5116 31.4422 41.5257 31.0699 41.4319 30.6653C41.3384 30.2574 41.1247 29.8339 40.7905 29.3951Z" fill="#E5E5E1"/>
<path d="M45.3067 30.7773L42.0077 24.2958L44.4889 23.033C44.9573 22.7945 45.3842 22.6703 45.7695 22.6601C46.1558 22.6467 46.4905 22.7274 46.7733 22.9022C47.0583 23.076 47.2825 23.3232 47.4457 23.6439C47.5799 23.9076 47.6442 24.1591 47.6385 24.3984C47.6317 24.6356 47.5724 24.8558 47.4606 25.0588C47.3488 25.2618 47.2002 25.4423 47.015 25.6004L47.0472 25.6637C47.2837 25.5593 47.5401 25.5177 47.8166 25.539C48.0941 25.5572 48.3595 25.6479 48.6126 25.8113C48.8658 25.9746 49.0761 26.2209 49.2437 26.55C49.4144 26.8855 49.4867 27.2285 49.4607 27.5792C49.4335 27.9277 49.2956 28.2622 49.047 28.5827C48.7984 28.9031 48.4261 29.1896 47.9303 29.4419L45.3067 30.7773ZM45.9815 29.1986L47.2442 28.5559C47.6704 28.339 47.9361 28.1015 48.0412 27.8434C48.1473 27.5822 48.1348 27.3229 48.0038 27.0655C47.9061 26.8735 47.7706 26.7247 47.5972 26.619C47.4228 26.5112 47.2255 26.4575 47.0053 26.458C46.784 26.4565 46.552 26.5174 46.3094 26.6409L45.015 27.2997L45.9815 29.1986ZM44.5849 26.4547L45.7464 25.8636C45.9489 25.7605 46.1126 25.6307 46.2375 25.4741C46.3613 25.3155 46.4347 25.144 46.4578 24.9596C46.4818 24.772 46.4455 24.5833 46.3489 24.3934C46.2211 24.1423 46.0272 23.9806 45.7673 23.9084C45.5095 23.8351 45.2076 23.8865 44.8616 24.0626L43.6748 24.6666L44.5849 26.4547Z" fill="#E5E5E1"/>
<path d="M52.4148 27.4989L51.0724 27.9178L51.35 20.2126L52.9026 19.7281L57.5166 25.9068L56.1742 26.3257L52.5977 21.3856L52.5435 21.4025L52.4148 27.4989ZM51.6094 24.7631L55.2705 23.6205L55.5858 24.6307L51.9247 25.7732L51.6094 24.7631Z" fill="#E5E5E1"/>
<path d="M57.9815 25.9275L56.8933 18.7366L58.196 18.5395L59.1189 24.6384L62.286 24.1591L62.4512 25.2511L57.9815 25.9275Z" fill="#E5E5E1"/>
<path d="M66.5748 25.0834L67.0514 17.8263L71.7714 18.1364L71.699 19.2384L68.2937 19.0147L68.1643 20.9849L71.3251 21.1925L71.2527 22.2945L68.0919 22.0869L67.9618 24.0678L71.3954 24.2933L71.3231 25.3953L66.5748 25.0834Z" fill="#E5E5E1"/>
<path d="M75.6606 18.7726L76.6228 21.7277L76.6781 21.7404L78.8441 19.5066L80.3078 19.8442L77.3073 22.8841L78.7083 26.9389L77.2203 26.5958L76.2369 23.654L76.1815 23.6412L74.0092 25.8553L72.5281 25.5138L75.584 22.4867L74.19 18.4334L75.6606 18.7726Z" fill="#E5E5E1"/>
<path d="M79.4742 27.2355L82.2572 20.5163L84.7769 21.5599C85.2931 21.7737 85.6863 22.0493 85.9565 22.3867C86.2289 22.7251 86.3851 23.0998 86.4249 23.5109C86.4679 23.9208 86.401 24.3389 86.2243 24.7654C86.0459 25.1963 85.7966 25.5415 85.4764 25.801C85.1563 26.0604 84.7792 26.213 84.3451 26.2587C83.912 26.3023 83.4362 26.2167 82.9178 26.002L81.2479 25.3103L81.6623 24.3096L83.1683 24.9334C83.4701 25.0584 83.739 25.1083 83.975 25.083C84.2109 25.0577 84.4129 24.9722 84.5808 24.8266C84.751 24.6818 84.8854 24.4902 84.9842 24.2518C85.0829 24.0134 85.1229 23.7839 85.104 23.5634C85.0873 23.3438 85.0025 23.1434 84.8495 22.9622C84.6996 22.7797 84.4726 22.6254 84.1686 22.4995L83.0531 22.0375L80.6914 27.7396L79.4742 27.2355Z" fill="#E5E5E1"/>
<path d="M85.9268 30.0911L89.7631 23.9125L93.7816 26.4076L93.1991 27.3459L90.2998 25.5457L89.2583 27.2231L91.9494 28.894L91.3668 29.8323L88.6758 28.1614L87.6287 29.8478L90.552 31.6629L89.9695 32.6012L85.9268 30.0911Z" fill="#E5E5E1"/>
<path d="M91.1018 33.4144L95.8573 27.9119L97.9207 29.6952C98.3435 30.0605 98.6346 30.4405 98.7943 30.835C98.9557 31.2311 98.9953 31.6252 98.9131 32.0172C98.8342 32.409 98.6431 32.7804 98.3397 33.1315C98.0347 33.4844 97.6948 33.7257 97.3198 33.8553C96.9483 33.9848 96.5562 33.9949 96.1438 33.8856C95.7328 33.7745 95.316 33.5363 94.8933 33.171L93.4236 31.9008L94.1388 31.0733L95.4742 32.2274C95.7213 32.441 95.9532 32.5819 96.1696 32.6501C96.3876 32.7164 96.5915 32.7158 96.7813 32.6483C96.9744 32.5805 97.1553 32.449 97.3241 32.2538C97.4928 32.0586 97.5982 31.8587 97.6404 31.6542C97.6841 31.4479 97.6582 31.2409 97.5625 31.033C97.4683 30.8233 97.2967 30.6109 97.0478 30.3957L96.1343 29.6062L92.0986 34.2758L91.1018 33.4144ZM96.0992 33.3778L95.3066 37.0483L94.1943 36.087L95.0111 32.4373L96.0992 33.3778Z" fill="#E5E5E1"/>
<path d="M100.831 33.9049L101.682 33.2011L105.38 37.6731L104.529 38.3768L103.096 36.6444L98.3423 40.5749L97.5096 39.5678L102.263 35.6373L100.831 33.9049Z" fill="#E5E5E1"/>
<path d="M109.158 52.87L108.19 53.2968L104.157 44.1459L105.126 43.7191L109.158 52.87Z" fill="#E5E5E1"/>
<circle cx="66" cy="66" r="5" fill="#E5E5E1"/>
</svg>
